<?xml version="1.0" encoding="UTF-8" standalone="no"?>
<!DOCTYPE svg PUBLIC "-//W3C//DTD SVG 1.1//EN"
 "http://www.w3.org/Graphics/SVG/1.1/DTD/svg11.dtd">
<!-- Generated by graphviz version 14.1.1 (0)
 -->
<!-- Pages: 1 -->
<svg width="590pt" height="44pt"
 viewBox="0.00 0.00 590.00 44.00" xmlns="http://www.w3.org/2000/svg" xmlns:xlink="http://www.w3.org/1999/xlink">
<g id="graph0" class="graph" transform="scale(1 1) rotate(0) translate(4 40)">
<polygon fill="black" stroke="none" points="-4,4 -4,-40 586,-40 586,4 -4,4"/>
<!-- src -->
<g id="node1" class="node">
<title>src</title>
<polygon fill="none" stroke="#b9b8c7" points="189.25,-36 0,-36 0,0 189.25,0 189.25,-36"/>
<text xml:space="preserve" text-anchor="middle" x="94.62" y="-14.45" font-family="IBM Plex Mono" font-size="14.00" fill="#b9b8c7">source:erp__customers</text>
</g>
<!-- stg -->
<g id="node2" class="node">
<title>stg</title>
<polygon fill="none" stroke="#b9b8c7" points="389.75,-36 225.25,-36 225.25,0 389.75,0 389.75,-36"/>
<text xml:space="preserve" text-anchor="middle" x="307.5" y="-14.45" font-family="IBM Plex Mono" font-size="14.00" fill="#b9b8c7">stg_erp__customers</text>
</g>
<!-- src&#45;&gt;stg -->
<g id="edge1" class="edge">
<title>src&#45;&gt;stg</title>
<path fill="none" stroke="#b9b8c7" d="M189.65,-18C197.55,-18 205.53,-18 213.42,-18"/>
<polygon fill="#b9b8c7" stroke="#b9b8c7" points="213.38,-21.5 223.38,-18 213.38,-14.5 213.38,-21.5"/>
</g>
<!-- mart -->
<g id="node3" class="node">
<title>mart</title>
<polygon fill="none" stroke="#b9b8c7" points="582,-36 425.75,-36 425.75,0 582,0 582,-36"/>
<text xml:space="preserve" text-anchor="middle" x="503.88" y="-14.45" font-family="IBM Plex Mono" font-size="14.00" fill="#b9b8c7">current_customers</text>
</g>
<!-- stg&#45;&gt;mart -->
<g id="edge2" class="edge">
<title>stg&#45;&gt;mart</title>
<path fill="none" stroke="#b9b8c7" d="M390.09,-18C398.07,-18 406.19,-18 414.24,-18"/>
<polygon fill="#b9b8c7" stroke="#b9b8c7" points="414.02,-21.5 424.02,-18 414.02,-14.5 414.02,-21.5"/>
</g>
</g>
</svg>
